# xmcd
# 
# Track frame offsets:
#     150
#     4436
#     18771
#     35826
#     45565
#     57411
#     65655
#     74062
#     80370
#     87500
#     94291
#     105233
#     125687
#     137225
#     151777
#     161620
#     175613
#     180816
#     196135
#     204093
#     210534
#     215099
#     219090
#     226404
#     234044
#     239779
#     266857
#     276360
#     288819
#     289768
# 
# Disc length: 4042
# 
# Revision: 1
# Processed by: cddbd v1.5.2PL0 Copyright (c) Steve Scherf et al.
# Submitted via: fre:ac v1.0.31
# 
DISCID=b20fc81e
DTITLE=John Fahey - Your Past Comes Back to Haunt You Disc 5
DYEAR=2011
DGENRE=Folk
TTITLE0=Dorothy - Calvert Street Blues (2) (Brenda's Blues (4))
TTITLE1=Days Have Gone By
TTITLE2=Some Summer Day (2)
TTITLE3=Texas and Pacific Blues (My Bucket's Got a Hole in It)
TTITLE4=John Henry Blues
TTITLE5=Brenda's Blues (5)
TTITLE6=St. Patrick's Hymn
TTITLE7=Bicycle Built for Two
TTITLE8=The Blues You Saved for Me
TTITLE9=House Carpenter
TTITLE10=How Long (1)
TTITLE11=The Portland Cement Factory at Monolith, California
TTITLE12=You Take the E Train (The Last Steam Engine Train)
TTITLE13=I Sing a Song of the Saints of God
TTITLE14=How Long (2)
TTITLE15=O Jesus I Have Promised (1)
TTITLE16=Untitled (1)
TTITLE17=Medley: Untitled (2) - O Jesus I Have Promised (2)
TTITLE18=I Am a Rake and Rambling Boy
TTITLE19=Medley: Goodbye Old Paint (1) - Whoopee Ti-Yi-Yo, Git Along Little Doggies
TTITLE20=Goodbye Old Paint (version 2)
TTITLE21=Simple Gifts
TTITLE22=Untitled (3)
TTITLE23=Bury Me Not On The Lone Prairie
TTITLE24=Goodbye Old Paint (3)
TTITLE25=Western Medley
TTITLE26=Durgan Park
TTITLE27=The Bitter Lemon
TTITLE28=Old Southern Medley [Fragment]
TTITLE29=Bottleneck Blues
EXTD=
EXTT0=
EXTT1=
EXTT2=
EXTT3=
EXTT4=
EXTT5=
EXTT6=
EXTT7=
EXTT8=
EXTT9=
EXTT10=
EXTT11=
EXTT12=
EXTT13=
EXTT14=
EXTT15=
EXTT16=
EXTT17=
EXTT18=
EXTT19=
EXTT20=
EXTT21=
EXTT22=
EXTT23=
EXTT24=
EXTT25=
EXTT26=
EXTT27=
EXTT28=
EXTT29=
PLAYORDER=
